HIERARCHY
ROOT Hips
{
	OFFSET	0.00	0.00	0.00
	CHANNELS 6 Xposition Yposition Zposition Zrotation Xrotation Yrotation
	JOINT LeftUpLeg
	{
		OFFSET	 0.126116	-0.065224	 0.014019
		CHANNELS 3 Zrotation Xrotation Yrotation
		JOINT LeftLeg
		{
			OFFSET	 0.000000	 0.569914	 0.000000
			CHANNELS 3 Zrotation Xrotation Yrotation
			JOINT LeftFoot
			{
				OFFSET	 0.000000	 0.544423	 0.000000
				CHANNELS 3 Zrotation Xrotation Yrotation
				JOINT LeftToeBase
				{
					OFFSET	 0.000000	 0.207117	 0.000000
					CHANNELS 3 Zrotation Xrotation Yrotation
					End Site
					{
						OFFSET	 0.000000	 0.207117	 0.000000
					}
				}
			}
		}
	}
	JOINT RightUpLeg
	{
		OFFSET	-0.124023	-0.065224	 0.008373
		CHANNELS 3 Zrotation Xrotation Yrotation
		JOINT RightLeg
		{
			OFFSET	 0.000000	 0.570047	 0.000000
			CHANNELS 3 Zrotation Xrotation Yrotation
			JOINT RightFoot
			{
				OFFSET	 0.000000	 0.544354	 0.000000
				CHANNELS 3 Zrotation Xrotation Yrotation
				JOINT RightToeBase
				{
					OFFSET	 0.000000	 0.207540	 0.000000
					CHANNELS 3 Zrotation Xrotation Yrotation
					End Site
					{
						OFFSET	 0.000000	 0.207540	 0.000000
					}
				}
			}
		}
	}
	JOINT Spine
	{
		OFFSET	 0.000184	 0.117403	 0.007763
		CHANNELS 3 Zrotation Xrotation Yrotation
		JOINT Spine1
		{
			OFFSET	 0.000000	 0.137269	 0.000000
			CHANNELS 3 Zrotation Xrotation Yrotation
			JOINT Spine2
			{
				OFFSET	 0.000000	 0.156879	 0.000000
				CHANNELS 3 Zrotation Xrotation Yrotation
				JOINT LeftShoulder
				{
					OFFSET	 0.080501	 0.160143	 0.002496
					CHANNELS 3 Zrotation Xrotation Yrotation
					JOINT LeftArm
					{
						OFFSET	 0.000000	 0.164363	 0.000000
						CHANNELS 3 Zrotation Xrotation Yrotation
						JOINT LeftForeArm
						{
							OFFSET	 0.000000	 0.364576	 0.000000
							CHANNELS 3 Zrotation Xrotation Yrotation
							JOINT LeftHand
							{
								OFFSET	 0.000000	 0.360812	 0.000000
								CHANNELS 3 Zrotation Xrotation Yrotation
								JOINT LeftHandIndex1
								{
									OFFSET	 0.000000	 0.086006	 0.000000
									CHANNELS 3 Zrotation Xrotation Yrotation
									JOINT LeftHandIndex2
									{
										OFFSET	 0.000000	 0.047237	 0.000000
										CHANNELS 3 Zrotation Xrotation Yrotation
										JOINT LeftHandIndex3
										{
											OFFSET	-0.004284	 0.038165	 0.000551
											CHANNELS 3 Zrotation Xrotation Yrotation
											End Site
											{
												OFFSET	-0.004284	 0.038165	 0.000551
											}
										}
									}
								}
							}
						}
					}
				}
				JOINT Neck
				{
					OFFSET	 0.000000	 0.176489	 0.000000
					CHANNELS 3 Zrotation Xrotation Yrotation
					JOINT Head
					{
						OFFSET	 0.000000	 0.077941	 0.001747
						CHANNELS 3 Zrotation Xrotation Yrotation
						End Site
						{
							OFFSET	 0.000000	 0.077941	 0.001747
						}
					}
				}
				JOINT RightShoulder
				{
					OFFSET	-0.080363	 0.159706	-0.000306
					CHANNELS 3 Zrotation Xrotation Yrotation
					JOINT RightArm
					{
						OFFSET	 0.000000	 0.164196	 0.000000
						CHANNELS 3 Zrotation Xrotation Yrotation
						JOINT RightForeArm
						{
							OFFSET	 0.000000	 0.365611	 0.000000
							CHANNELS 3 Zrotation Xrotation Yrotation
							JOINT RightHand
							{
								OFFSET	 0.000000	 0.360648	 0.000000
								CHANNELS 3 Zrotation Xrotation Yrotation
								JOINT RightHandIndex1
								{
									OFFSET	 0.000000	 0.069977	 0.000000
									CHANNELS 3 Zrotation Xrotation Yrotation
									JOINT RightHandIndex2
									{
										OFFSET	 0.000000	 0.052305	 0.000000
										CHANNELS 3 Zrotation Xrotation Yrotation
										JOINT RightHandIndex3
										{
											OFFSET	 0.009002	 0.042196	 0.000782
											CHANNELS 3 Zrotation Xrotation Yrotation
											End Site
											{
												OFFSET	 0.009002	 0.042196	 0.000782
											}
										}
									}
								}
							}
						}
					}
				}
			}
		}
	}
}
MOTION
Frames:    11
Frame Time: 0.03333334
-0.000888	 1.270111	-0.008676	 0.001379	 3.210458	 178.778500	-178.169500	 3.120543	-15.516620	 3.048148	-15.074630	 2.861295	-5.239449	 69.346190	 6.724792	 1.331492	 28.938720	-2.729976	 177.808400	 4.169239	 18.988790	-5.067173	-16.245410	-6.458406	 2.558553	 70.276660	-1.737596	-1.305364	 28.580670	 2.603659	-1.072181	 3.348780	-1.291886	-1.641588	 3.507082	-1.234451	-1.666595	-2.109558	-0.650424	-113.447100	 5.124268	 92.999660	 53.825760	 38.018420	 0.640428	 4.515647	-0.224956	-0.255476	-21.014660	 11.463860	-14.273600	-6.580301	 5.266122	 0.000000	 0.000000	 0.000000	 0.000000	 0.000000	 0.000000	 0.000000	 3.833761	-0.652896	-0.251321	 3.223274	 1.186761	 1.437145	 114.205100	-4.423982	-88.485670	-69.940910	-4.860013	 42.545620	-89.255120	-2.246388	-1.984412	-4.849503	-15.462180	-28.630250	-0.359781	 10.582420	 0.744568	 11.977790	 9.317288	-2.096061	-8.359142	 3.150325	 0.104225
-0.000711	 1.271045	-0.008871	 0.029277	 3.214852	 178.722900	-178.067300	 3.113127	-16.017960	 3.054071	-15.102500	 2.837682	-5.281075	 69.177050	 6.765265	 1.331492	 28.938720	-2.729976	 177.787900	 4.148361	 19.397850	-5.058903	-16.220330	-6.497498	 2.452091	 70.119670	-1.619522	-1.305381	 28.580770	 2.599328	-1.005149	 3.354430	-2.477000	-1.627611	 3.527336	-1.207436	-1.675867	-2.147200	-0.642287	-113.447200	 5.115102	 92.997640	 53.364380	 38.434570	 0.980615	 5.045428	-0.226485	-0.801995	-20.958520	 9.979686	-15.013600	-6.580301	 5.266122	 0.000000	 0.000000	 0.000000	 0.000000	 0.000000	 0.000000	 0.000000	 3.848705	-0.687182	-0.255971	 3.279454	 1.206016	 1.404786	 114.202400	-4.405763	-88.498850	-69.325800	-5.490950	 41.173850	-90.853730	-2.226712	-1.498475	-6.300622	-15.123380	-28.231710	-0.359778	 10.582330	 0.744568	 11.977790	 9.317196	-2.096042	-8.359140	 3.150276	 0.104230
-0.000373	 1.271990	-0.009203	 0.070532	 3.221390	 178.639700	-177.939400	 3.101463	-16.555420	 3.062202	-15.140870	 2.802346	-5.368080	 69.007380	 6.843642	 1.331492	 28.938720	-2.729976	 177.792300	 4.116103	 19.797500	-5.046754	-16.183510	-6.556258	 2.291727	 69.970110	-1.442654	-1.305406	 28.580910	 2.592860	-0.905984	 3.360404	-4.248450	-1.623697	 3.548191	-1.171126	-1.681730	-2.199137	-0.630095	-113.447500	 5.101389	 92.994660	 52.487600	 39.323390	 1.604396	 5.843844	-0.229124	-1.617329	-20.766300	 7.502099	-16.202360	-6.580301	 5.266122	 0.000000	 0.000000	 0.000000	 0.000000	 0.000000	 0.000000	 0.000000	 3.871014	-0.738384	-0.262898	 3.363386	 1.234843	 1.356390	 114.198500	-4.378585	-88.518530	-68.805210	-6.421280	 38.973300	-93.716650	-2.192899	-0.791841	-7.933824	-14.816590	-27.861000	-0.359773	 10.582190	 0.744568	 11.977790	 9.317062	-2.096014	-8.359138	 3.150205	 0.104237
 0.000110	 1.272834	-0.009653	 0.118364	 3.229222	 178.543200	-177.802300	 3.085534	-17.059550	 3.070745	-15.181130	 2.761133	-5.485085	 68.855190	 6.944604	 1.331492	 28.938720	-2.729976	 177.820500	 4.075881	 20.142550	-5.032615	-16.140690	-6.625481	 2.100487	 69.847120	-1.234572	-1.305435	 28.581080	 2.585304	-0.791581	 3.363673	-6.313818	-1.639666	 3.559954	-1.132950	-1.678996	-2.253278	-0.615822	-113.447700	 5.085369	 92.991130	 51.179300	 40.673970	 2.527447	 6.780438	-0.232387	-2.567766	-20.398870	 4.305079	-17.695770	-6.580301	 5.266122	 0.000000	 0.000000	 0.000000	 0.000000	 0.000000	 0.000000	 0.000000	 3.897069	-0.798203	-0.270965	 3.461516	 1.268322	 1.299748	 114.193900	-4.346816	-88.541490	-68.785440	-7.605114	 36.255520	-97.450980	-2.144521	 0.017481	-9.212765	-14.621520	-27.639400	-0.359768	 10.582030	 0.744568	 11.977790	 9.316903	-2.095983	-8.359134	 3.150121	 0.104244
 0.000859	 1.273755	-0.010345	 0.182340	 3.239405	 178.412600	-177.626700	 3.060790	-17.637610	 3.081295	-15.230840	 2.705751	-5.656236	 68.687740	 7.087731	 1.331492	 28.938720	-2.729976	 177.879300	 4.018757	 20.506060	-5.013881	-16.083840	-6.720026	 1.837185	 69.726790	-0.951048	-1.305475	 28.581300	 2.575111	-0.640534	 3.361821	-9.077126	-1.684811	 3.559574	-1.083063	-1.664318	-2.318653	-0.596509	-113.448100	 5.063796	 92.986400	 48.957730	 42.869900	 4.126322	 8.044601	-0.237146	-3.844450	-19.734190	-0.365078	-19.850200	-6.580301	 5.266122	 0.000000	 0.000000	 0.000000	 0.000000	 0.000000	 0.000000	 0.000000	 3.932208	-0.878912	-0.281806	 3.594026	 1.313438	 1.223141	 114.187700	-4.303953	-88.572470	-69.737840	-9.426329	 32.441310	-102.586300	-2.063585	 1.103101	-10.278600	-14.449840	-27.512420	-0.359761	 10.581810	 0.744568	 11.977790	 9.316689	-2.095940	-8.359130	 3.150009	 0.104255
 0.001827	 1.274684	-0.011282	 0.259900	 3.251895	 178.253900	-177.422400	 3.025889	-18.251320	 3.093422	-15.287850	 2.639054	-5.873356	 68.518370	 7.266012	 1.331492	 28.938720	-2.729976	 177.967000	 3.944055	 20.859740	-4.990641	-16.013280	-6.836451	 1.514245	 69.619610	-0.603186	-1.305523	 28.581580	 2.562717	-0.463218	 3.350291	-12.371250	-1.753384	 3.546798	-1.015375	-1.640304	-2.392039	-0.572938	-113.448500	 5.037521	 92.980640	 45.656290	 45.806920	 6.600317	 9.574057	-0.242905	-5.383969	-18.818460	-6.287059	-22.598220	-6.580301	 5.266122	 0.000000	 0.000000	 0.000000	 0.000000	 0.000000	 0.000000	 0.000000	 3.974913	-0.977052	-0.294921	 3.755333	 1.367949	 1.129720	 114.180200	-4.251827	-88.610160	-72.119380	-11.818920	 27.745800	-108.270400	-1.949004	 2.438112	-11.385430	-14.188160	-27.307440	-0.359753	 10.581550	 0.744568	 11.977790	 9.316429	-2.095887	-8.359125	 3.149871	 0.104268
 0.002970	 1.275686	-0.012557	 0.359833	 3.267310	 178.051200	-177.176000	 2.976232	-18.951790	 3.109460	-15.363350	 2.554860	-6.152337	 68.341760	 7.496313	 1.331492	 28.938720	-2.729976	 178.085200	 3.844486	 21.227520	-4.960493	-15.921710	-6.987963	 1.110563	 69.516750	-0.156780	-1.305584	 28.581930	 2.546848	-0.248610	 3.321726	-16.423590	-1.816705	 3.532232	-0.897836	-1.621696	-2.487215	-0.542724	-113.449100	 5.003909	 92.973300	 40.923560	 49.322040	 10.344730	 11.499700	-0.249617	-7.326540	-17.775610	-13.555090	-26.131800	-6.580301	 5.266122	 0.000000	 0.000000	 0.000000	 0.000000	 0.000000	 0.000000	 0.000000	 4.029560	-1.102722	-0.311607	 3.962161	 1.437457	 1.009645	 114.170700	-4.185112	-88.658360	-75.518330	-14.461630	 22.111680	-114.321200	-1.793218	 4.175145	-14.208140	-13.757300	-26.441970	-0.359742	 10.581220	 0.744568	 11.977790	 9.316097	-2.095820	-8.359118	 3.149695	 0.104285
 0.003725	 1.276491	-0.013726	 0.455297	 3.282093	 177.862200	-176.965300	 2.928441	-19.550330	 3.127682	-15.448970	 2.478267	-6.402594	 68.216770	 7.710926	 1.331492	 28.938720	-2.729976	 178.184200	 3.749837	 21.513820	-4.931459	-15.833410	-7.131989	 0.759616	 69.435040	 0.256827	-1.305641	 28.582260	 2.532021	-0.062937	 3.282537	-19.974620	-1.798617	 3.551759	-0.734235	-1.641565	-2.592737	-0.514532	-113.449600	 4.972486	 92.966390	 36.983540	 51.615600	 13.637440	 13.253920	-0.255108	-9.103474	-17.239880	-19.142740	-29.196690	-6.580301	 5.266122	 0.000000	 0.000000	 0.000000	 0.000000	 0.000000	 0.000000	 0.000000	 4.080588	-1.220155	-0.327090	 4.155718	 1.501902	 0.897001	 114.161800	-4.122747	-88.703410	-75.957570	-15.888100	 17.977930	-119.584700	-1.636120	 5.784442	-20.114020	-13.769250	-24.757210	-0.359732	 10.580900	 0.744568	 11.977790	 9.315788	-2.095757	-8.359113	 3.149531	 0.104301
 0.003852	 1.277400	-0.014755	 0.476599	 3.226111	 178.136800	-176.887800	 3.013014	-19.729270	 3.142534	-15.518700	 2.778813	-5.648883	 68.087230	 6.890860	 1.331492	 28.938720	-2.729976	 178.129700	 3.705318	 22.249620	-4.918233	-15.793180	-6.896690	 1.406394	 69.344490	-0.414934	-1.306122	 28.588080	 2.507958	 0.150639	 3.204153	-24.261460	-1.771238	 3.610544	-0.715924	-1.629850	-2.772537	-0.461206	-113.449800	 4.905913	 92.940120	 34.916400	 52.320710	 15.386020	 15.386540	-0.261624	-11.258940	-17.652040	-23.953490	-32.604020	-6.580301	 5.266122	 0.000000	 0.000000	 0.000000	 0.000000	 0.000000	 0.000000	 0.000000	 4.047347	-1.320759	-0.284717	 4.034856	 1.500436	 0.944096	 114.157100	-4.089850	-88.727120	-69.458440	-12.857840	 17.310430	-126.430600	-1.413168	 7.737520	-26.482680	-16.999000	-27.788730	-0.359708	 10.580210	 0.744565	 11.977780	 9.315104	-2.095614	-8.359103	 3.149179	 0.104330
 0.003280	 1.278230	-0.015495	 0.394359	 3.092242	 178.945100	-177.003800	 3.236468	-19.323450	 3.145090	-15.530740	 3.489857	-3.806870	 67.957850	 4.956034	 1.331492	 28.938720	-2.729976	 177.891800	 3.728944	 23.391100	-4.928813	-15.825390	-6.228506	 3.158061	 69.251470	-2.307923	-1.307026	 28.599540	 2.478199	 0.334974	 3.098919	-28.262410	-1.789203	 3.677237	-0.865420	-1.557670	-2.987493	-0.388399	-113.449800	 4.810996	 92.895390	 35.441920	 51.323410	 14.881220	 17.472570	-0.269811	-13.317100	-18.722490	-26.868180	-35.510630	-6.580301	 5.266122	 0.000000	 0.000000	 0.000000	 0.000000	 0.000000	 0.000000	 0.000000	 3.912825	-1.372836	-0.178131	 3.534770	 1.411962	 1.187682	 114.159000	-4.104230	-88.716700	-55.773240	-2.315888	 21.010730	-131.953900	-1.203332	 9.653319	-35.665630	-21.904750	-35.883670	-0.359671	 10.579210	 0.744557	 11.977770	 9.314116	-2.095404	-8.359093	 3.148674	 0.104368
 0.002283	 1.279034	-0.016318	 0.309297	 2.946879	 179.820900	-177.153600	 3.471495	-18.846780	 3.150634	-15.556800	 4.259063	-1.823508	 67.830670	 2.885835	 1.331492	 28.938720	-2.729976	 177.613500	 3.746711	 24.589800	-4.939775	-15.858720	-5.510751	 5.053638	 69.132030	-4.331438	-1.307996	 28.611960	 2.445987	 0.493134	 2.978725	-31.976730	-1.720798	 3.781323	-0.946128	-1.522932	-3.234226	-0.308694	-113.449800	 4.708289	 92.847020	 23.579730	 46.329870	 23.455640	 39.392850	-1.163935	-14.924890	-29.803130	-27.312020	-37.574570	-6.580301	 5.266122	 0.000000	 0.000000	 0.000000	 0.000000	 0.000000	 0.000000	 0.000000	 3.767335	-1.429481	-0.062903	 2.993804	 1.314443	 1.450660	 114.161100	-4.119809	-88.705430	-40.923570	 12.227210	 26.842450	-129.796100	-1.184990	 11.856290	-55.146160	-25.739830	-39.426690	-0.359632	 10.578120	 0.744548	 11.977760	 9.313045	-2.095176	-8.359079	 3.148126	 0.104410
